<svg role="img" viewBox="0 0 24 24" xmlns="http://www.w3.org/2000/svg" id="Bunq--Streamline-Simple-Icons" height="24" width="24">
  <desc>
    Bunq Streamline Icon: https://streamlinehq.com
  </desc>
  <title>bunq</title>
  <path d="M16.414 14.62h1.103v-2.896a2.484 2.484 0 0 0 -2.483 -2.483 2.484 2.484 0 0 0 -2.482 2.483v2.897h1.103v-2.897c0 -0.837 0.618 -1.517 1.38 -1.517 0.76 0 1.379 0.68 1.379 1.517zm-6.07 -5.24h1.104v2.896a2.484 2.484 0 0 1 -2.482 2.483 2.484 2.484 0 0 1 -2.483 -2.483V9.379h1.103v2.897c0 0.837 0.618 1.517 1.38 1.517 0.76 0 1.379 -0.68 1.379 -1.517zM0 7.034V12c0 0.046 0.001 0.093 0.004 0.139H0v2.482h0.965l0.055 -0.48A2.76 2.76 0 0 0 5.518 12a2.76 2.76 0 0 0 -4.414 -2.208V7.035zm2.69 3.172c0.951 0 1.724 0.803 1.724 1.793 0 0.99 -0.773 1.793 -1.725 1.793 -0.951 0 -1.724 -0.803 -1.724 -1.793 0 -0.99 0.773 -1.793 1.724 -1.793zm18.552 -0.965A2.76 2.76 0 0 0 18.482 12a2.76 2.76 0 0 0 4.414 2.207v2.758H24V12a2.15 2.15 0 0 0 -0.004 -0.139H24V9.38h-0.965l-0.055 0.48a2.741 2.741 0 0 0 -1.738 -0.617zm0.069 0.965c0.951 0 1.724 0.803 1.724 1.793 0 0.99 -0.773 1.793 -1.724 1.793 -0.952 0 -1.725 -0.803 -1.725 -1.793 0 -0.99 0.773 -1.793 1.725 -1.793Z" fill="#000000" stroke-width="1"></path>
</svg>